<svg viewBox="0 0 71 53" xmlns="http://www.w3.org/2000/svg"><path d="M40.947 25.167a15.366 15.366 0 0 1 3.231-8.32c4.37-5.566 11.947-7.315 18.252-4.213V0H71v41.29h-8.57v-1.195c-6.305 3.102-13.882 1.353-18.252-4.214a15.366 15.366 0 0 1-3.231-8.32v13.722h-8.57V16.772L16.548 53H7.17l4.732-10.829L0 15.686h9.421l7.12 15.854 6.933-15.854h8.902V0h8.57v25.167zm14.99 7.73h.007c3.546-.008 6.417-2.93 6.42-6.536 0-3.61-2.877-6.537-6.427-6.537S49.51 22.75 49.51 26.36c0 3.61 2.877 6.537 6.427 6.537zM16.542 15.687c-3.55 0-6.428-2.927-6.428-6.537s2.878-6.537 6.428-6.537 6.427 2.927 6.427 6.537-2.877 6.537-6.427 6.537z" fill="#252945" fill-rule="nonzero"/></svg>