<svg width="50" height="30" xmlns="http://www.w3.org/2000/svg" xmlns:xlink="http://www.w3.org/1999/xlink"><defs><path id="a" d="M36.029 1h13.97v13.972H36.03z"/></defs><g transform="translate(0 -1)" fill="none" fill-rule="evenodd"><path fill="#F7007D" d="M31.293 30.68l-12-12 1.414-1.415 12 12z"/><path fill="#F7007D" d="M20.707 30.68l-1.414-1.415 12-12 1.414 1.414zM19.293 2.679l12 12 1.414-1.413-12-12.001z"/><path fill="#F7007D" d="M19.293 13.266l1.414 1.414 12-12.001-1.414-1.414zM2 28.972h10v-10H2v10zm-2 2h14v-14H0v14z"/><mask id="b" fill="#fff"><use xlink:href="#a"/></mask><path d="M43.014 3a4.991 4.991 0 0 0-4.985 4.986 4.991 4.991 0 0 0 4.985 4.986A4.992 4.992 0 0 0 48 7.986 4.992 4.992 0 0 0 43.014 3m0 11.972c-3.852 0-6.985-3.134-6.985-6.986S39.162 1 43.014 1A6.993 6.993 0 0 1 50 7.986a6.993 6.993 0 0 1-6.986 6.986" fill="#F7007D" mask="url(#b)"/></g></svg>