<?xml version="1.0" encoding="UTF-8"?>
<svg width="39px" height="32px" viewBox="0 0 39 32" version="1.1" xmlns="http://www.w3.org/2000/svg" xmlns:xlink="http://www.w3.org/1999/xlink">
    <!-- Generator: Sketch 50 (54983) - http://www.bohemiancoding.com/sketch -->
    <title>Group 23</title>
    <desc>Created with Sketch.</desc>
    <defs></defs>
    <g id="Page-1" stroke="none" stroke-width="1" fill="none" fill-rule="evenodd">
        <g id="SERVICES" transform="translate(-555.000000, -452.000000)" fill="#F7007D" fill-rule="nonzero">
            <g id="Group-23" transform="translate(555.000000, 452.000000)">
                <polygon id="Shape" points="39 0 23.9318182 0 0 0 0 7.11111111 1.77272727 7.11111111 1.77272727 1.77777778 37.2272727 1.77777778 37.2272727 30.2222222 24.8181818 30.2222222 24.8181818 32 39 32"></polygon>
                <polygon id="Shape" points="1.77272727 30.2222222 1.77272727 7.11111111 0 7.11111111 0 32 24.8181818 32 24.8181818 30.2222222"></polygon>
                <rect id="Rectangle-path" x="4.43181818" y="10.6666667" width="10.6363636" height="1.77777778"></rect>
                <rect id="Rectangle-path" x="4.43181818" y="25.7777778" width="10.6363636" height="1.77777778"></rect>
                <rect id="Rectangle-path" x="16.8409091" y="10.6666667" width="3.54545455" height="1.77777778"></rect>
                <rect id="Rectangle-path" x="4.43181818" y="16" width="3.54545455" height="1.77777778"></rect>
                <rect id="Rectangle-path" x="22.1590909" y="10.6666667" width="9.75" height="1.77777778"></rect>
                <rect id="Rectangle-path" x="4.43181818" y="21.3333333" width="4.43181818" height="1.77777778"></rect>
                <rect id="Rectangle-path" x="9.75" y="16" width="1.77272727" height="1.77777778"></rect>
                <rect id="Rectangle-path" x="16.8409091" y="25.7777778" width="1.77272727" height="1.77777778"></rect>
                <rect id="Rectangle-path" x="22.1590909" y="16" width="5.31818182" height="1.77777778"></rect>
                <rect id="Rectangle-path" x="13.2954545" y="16" width="7.09090909" height="1.77777778"></rect>
                <rect id="Rectangle-path" x="10.6363636" y="21.3333333" width="21.2727273" height="1.77777778"></rect>
            </g>
        </g>
    </g>
</svg>