<svg width="39" height="32" xmlns="http://www.w3.org/2000/svg"><g fill="#F7007D" fill-rule="nonzero"><path d="M39 0H0v7.111h1.773V1.778h35.454v28.444H24.818V32H39z"/><path d="M1.773 30.222V7.112H0V32h24.818v-1.778z"/><path d="M4.432 10.667h10.636v1.778H4.432zM4.432 25.778h10.636v1.778H4.432zM16.841 10.667h3.545v1.778h-3.545zM4.432 16h3.545v1.778H4.432zM22.159 10.667h9.75v1.778h-9.75zM4.432 21.333h4.432v1.778H4.432zM9.75 16h1.773v1.778H9.75zM16.841 25.778h1.773v1.778h-1.773zM22.159 16h5.318v1.778h-5.318zM13.295 16h7.091v1.778h-7.091zM10.636 21.333h21.273v1.778H10.636z"/></g></svg>