<svg width="49" height="41" xmlns="http://www.w3.org/2000/svg" xmlns:xlink="http://www.w3.org/1999/xlink"><defs><path id="a" d="M.67.139h31.375v16.862H.671z"/></defs><g fill="none" fill-rule="evenodd"><path fill="#5E5CB2" d="M0 41h32V9H0z"/><path d="M32 33h-2.028c0-6.602-5.37-11.972-11.973-11.972-6.6 0-11.971 5.37-11.971 11.972H4c0-7.72 6.28-14 14-14s14 6.28 14 14" fill="#FFF"/><path d="M49 33h-2.028c0-6.602-5.37-11.972-11.973-11.972-6.6 0-11.971 5.37-11.971 11.972H21c0-7.72 6.28-14 14-14s14 6.28 14 14" fill="#FFF"/><g transform="translate(10)"><mask id="b" fill="#fff"><use xlink:href="#a"/></mask><path d="M16.358 11.54c.882 0 1.715.4 2.285 1.099A6.401 6.401 0 0 0 23.618 15a6.409 6.409 0 0 0 4.992-2.378c1.228-1.511 1.698-3.498 1.291-5.45-.524-2.511-2.587-4.493-5.132-4.932-2.36-.41-4.659.448-6.147 2.288a2.902 2.902 0 0 1-2.264 1.09c-.88 0-1.705-.397-2.265-1.09-1.488-1.84-3.785-2.696-6.147-2.288-2.545.438-4.608 2.42-5.132 4.932-.408 1.952.063 3.939 1.29 5.45A6.41 6.41 0 0 0 9.097 15a6.401 6.401 0 0 0 4.975-2.362 2.945 2.945 0 0 1 2.286-1.1m7.26 5.462a8.395 8.395 0 0 1-6.524-3.097.946.946 0 0 0-1.473 0A8.395 8.395 0 0 1 9.097 17a8.4 8.4 0 0 1-6.545-3.117C.943 11.904.325 9.309.857 6.764 1.547 3.457 4.26.847 7.607.27c3.09-.535 6.092.59 8.041 3a.917.917 0 0 0 1.42.002C19.015.86 22.015-.265 25.108.27c3.347.577 6.06 3.187 6.75 6.494.531 2.544-.087 5.139-1.696 7.12A8.4 8.4 0 0 1 23.618 17" fill="#FFF" mask="url(#b)"/></g></g></svg>