<svg width="34" height="40" xmlns="http://www.w3.org/2000/svg"><g fill="#F7007D" fill-rule="evenodd"><path d="M11 36h12v-2H11zM14 40h6v-2h-6zM21.998 25.651l-.998.578V30h-3v-9.55l3.5-3.5-1.5-1.5-3 3-3-3-1.5 1.5 3.5 3.5V30h-3v-3.771l-.998-.578C8.917 23.863 7 20.549 7 17c0-5.514 4.486-10 10-10s10 4.486 10 10c0 3.549-1.917 6.863-5.002 8.651M17 5C10.373 5 5 10.373 5 17c0 4.439 2.417 8.306 6 10.382V32h12v-4.618c3.583-2.076 6-5.943 6-10.382 0-6.627-5.373-12-12-12M0 18h3v-2H0zM31 18h3v-2h-3zM16 3h2V0h-2zM4 28.718L5.282 30 7 28.283 5.718 27zM27 5.718L28.282 7 30 5.283 28.718 4zM27 28.282L28.718 30 30 28.717 28.282 27zM7 5.718L5.282 4 4 5.283 5.718 7z"/></g></svg>