<?xml version="1.0" encoding="UTF-8"?>
<svg width="34px" height="40px" viewBox="0 0 34 40" version="1.1" xmlns="http://www.w3.org/2000/svg" xmlns:xlink="http://www.w3.org/1999/xlink">
    <!-- Generator: Sketch 50 (54983) - http://www.bohemiancoding.com/sketch -->
    <title>icon: resource</title>
    <desc>Created with Sketch.</desc>
    <defs></defs>
    <g id="Page-1" stroke="none" stroke-width="1" fill="none" fill-rule="evenodd">
        <g id="SERVICES" transform="translate(-161.000000, -449.000000)" fill="#F7007D">
            <g id="icon:-resource" transform="translate(161.000000, 449.000000)">
                <g id="Group-25">
                    <polygon id="Fill-2" points="11 36 23 36 23 34 11 34"></polygon>
                    <polygon id="Fill-3" points="14 40 20 40 20 38 14 38"></polygon>
                    <path d="M21.998,25.651 L21,26.229 L21,27.382 L21,30 L18,30 L18,20.45 L21.5,16.95 L20,15.45 L17,18.45 L14,15.45 L12.5,16.95 L16,20.45 L16,30 L13,30 L13,27.382 L13,26.229 L12.002,25.651 C8.917,23.863 7,20.549 7,17 C7,11.486 11.486,7 17,7 C22.514,7 27,11.486 27,17 C27,20.549 25.083,23.863 21.998,25.651 M17,5 C10.373,5 5,10.373 5,17 C5,21.439 7.417,25.306 11,27.382 L11,32 L23,32 L23,27.382 C26.583,25.306 29,21.439 29,17 C29,10.373 23.627,5 17,5" id="Fill-4"></path>
                    <polygon id="Fill-6" points="0 18 3 18 3 16 0 16"></polygon>
                    <polygon id="Fill-8" points="31 18 34 18 34 16 31 16"></polygon>
                    <polygon id="Fill-9" points="16 3 18 3 18 0 16 0"></polygon>
                    <polygon id="Fill-10" points="4 28.7176542 5.28234583 30 7 28.2832527 5.71765417 27"></polygon>
                    <polygon id="Fill-11" points="27 5.71765417 28.2823458 7 30 5.28325272 28.7176542 4"></polygon>
                    <polygon id="Fill-12" points="27 28.2823458 28.7176542 30 30 28.7167473 28.2823458 27"></polygon>
                    <polygon id="Fill-13" points="7 5.71765417 5.28234583 4 4 5.28325272 5.71765417 7"></polygon>
                </g>
            </g>
        </g>
    </g>
</svg>