<svg width="39" height="39" xmlns="http://www.w3.org/2000/svg"><path d="M32.597 32.007l2.847-2.846.71.713-2.844 2.844-.713-.71zm-1.422-7.112l.712.71-2.846 2.845-.711-.71 2.845-2.845zm2.846 2.844l-2.846 2.846-.711-.712 2.846-2.845.711.711zm2.845 0l-1.422-1.422-.712-.711-1.422-1.423-2.135-2.133-5.691 5.69 7.826 7.823 5.69-5.69-2.134-2.134zM9.122 2.846l.711.71-2.845 2.845-.712-.71 2.846-2.845zm2.845 2.844L9.122 8.536l-.711-.712 2.845-2.845.711.711zm-.711 4.98l-.711-.712 2.845-2.845.712.71-2.846 2.846zm5.691-2.846l-4.269-4.268-1.422-1.423L9.122 0 3.431 5.69l7.825 7.824 5.691-5.69zm4.259 6.707a2.013 2.013 0 0 1 2.846 2.846 2.012 2.012 0 1 1-2.846-2.846zM9.146 35.589l-5.734-5.734 5.725-2.812 2.821 2.822-2.812 5.724zM0 29.29L9.714 39l4.685-9.54-4.857-4.856L0 29.288zm30.602-12.356L19.081 28.45l-8.536-8.535L22.064 8.398l8.704-.16-.166 8.695zM32.82 6.187l-11.604.214L7.699 19.915l11.382 11.381 13.517-13.514.222-11.595z" fill="#F7007D" fill-rule="evenodd"/></svg>