<svg width="54" height="41" xmlns="http://www.w3.org/2000/svg" xmlns:xlink="http://www.w3.org/1999/xlink"><defs><path id="a" d="M0 .043h5.74v5.74H0z"/><path id="c" d="M0 .922h6.001v6.001H0z"/><path id="e" d="M0 .882h5.74v5.74H0z"/><path id="g" d="M.563.836h5.741v5.741H.564z"/></defs><g fill="none" fill-rule="evenodd"><path d="M0 41h32V9H0z" fill="#5E5CB2"/><path d="M53.819 27.974a3 3 0 1 1-5.639 2.052 3 3 0 0 1 5.639-2.052M28.819 15.974a3 3 0 1 1-5.635 2.052 3 3 0 0 1 5.635-2.052" fill="#FFF"/><path fill="#FFF" d="M50.194 30L27 18.789 27.806 17 51 28.211zM40.087 28.756a2.87 2.87 0 1 1-5.395 1.964 2.87 2.87 0 0 1 5.395-1.964"/><g transform="translate(10 15.391)"><mask id="b" fill="#fff"><use xlink:href="#a"/></mask><path d="M5.567 1.931A2.87 2.87 0 1 1 .176 3.895a2.87 2.87 0 0 1 5.39-1.964" fill="#FFF" mask="url(#b)"/></g><path fill="#FFF" d="M36.985 30.606L13.692 19.743l.809-1.733 23.293 10.862zM14.138 26.847a2.87 2.87 0 1 1-2.426 5.202 2.87 2.87 0 0 1 2.426-5.202"/><path fill="#FFF" d="M27.243 25.255l-12.72 4.63-.654-1.799 11.874-4.32"/><g transform="translate(10 1)"><mask id="d" fill="#fff"><use xlink:href="#c"/></mask><path d="M.182 4.949A3 3 0 1 1 5.82 2.895 3 3 0 0 1 .182 4.949" fill="#FFF" mask="url(#d)"/></g><path d="M35.181 17.026a3 3 0 1 1 5.635-2.052 3 3 0 0 1-5.635 2.052" fill="#FFF"/><path fill="#FFF" d="M12.806 4L36 15.211 35.194 17 12 5.789z"/><g><g transform="translate(23.391)"><mask id="f" fill="#fff"><use xlink:href="#e"/></mask><path d="M.174 4.734a2.87 2.87 0 1 1 5.393-1.965A2.87 2.87 0 0 1 .174 4.734" fill="#FFF" mask="url(#f)"/></g><g transform="translate(47.348 11.478)"><mask id="h" fill="#fff"><use xlink:href="#g"/></mask><path d="M.737 4.689a2.87 2.87 0 1 1 5.391-1.964A2.87 2.87 0 0 1 .737 4.689" fill="#FFF" mask="url(#h)"/></g><path fill="#FFF" d="M26.667 2.884L49.96 13.746l-.81 1.734L25.858 4.617zM49.514 6.643A2.869 2.869 0 1 1 51.94 1.44a2.869 2.869 0 0 1 1.387 3.813 2.867 2.867 0 0 1-3.813 1.389"/><path fill="#FFF" d="M36.408 8.235l12.72-4.63.655 1.8-11.875 4.32"/></g></g></svg>
