<?xml version="1.0" encoding="UTF-8"?>
<svg width="54px" height="41px" viewBox="0 0 54 41" version="1.1" xmlns="http://www.w3.org/2000/svg" xmlns:xlink="http://www.w3.org/1999/xlink">
    <!-- Generator: Sketch 50 (54983) - http://www.bohemiancoding.com/sketch -->
    <title>Group 37</title>
    <desc>Created with Sketch.</desc>
    <defs>
        <polygon id="path-1" points="0 0.0427690709 5.74036211 0.0427690709 5.74036211 5.78357722 0 5.78357722"></polygon>
        <polygon id="path-3" points="0 0.922 6.00146709 0.922 6.00146709 6.92308688 0 6.92308688"></polygon>
        <polygon id="path-5" points="-0.00027440736 0.881913043 5.74053374 0.881913043 5.74053374 6.6220831 -0.00027440736 6.6220831"></polygon>
        <polygon id="path-7" points="0.563255278 0.836318431 6.304 0.836318431 6.304 6.57712658 0.563255278 6.57712658"></polygon>
    </defs>
    <g id="Page-1" stroke="none" stroke-width="1" fill="none" fill-rule="evenodd">
        <g id="SERVICES" transform="translate(-488.000000, -1668.000000)">
            <g id="Group-37" transform="translate(488.000000, 1660.000000)">
                <g id="icon:-dedicated-teams" fill="#5E5CB2">
                    <polygon id="Fill-1" points="0 49 32 49 32 17 0 17"></polygon>
                </g>
                <g id="Group-29" transform="translate(10.000000, 8.000000)">
                    <path d="M43.818566,27.9737099 C44.3843986,29.5312546 43.5826358,31.2527513 42.0270958,31.8185859 C40.4695565,32.3844205 38.7480656,31.5826549 38.182233,30.0251102 C37.6144009,28.469565 38.4181632,26.7500676 39.9737031,26.1822336 C41.5312425,25.6143996 43.2507339,26.4181646 43.818566,27.9737099" id="Fill-8" fill="#FFFFFF"></path>
                    <path d="M18.8185654,15.9737099 C19.3844,17.5292552 18.5826343,19.2527513 17.0270891,19.8185859 C15.4695444,20.3844205 13.7480476,19.5826549 13.182213,18.0251102 C12.614379,16.469565 13.418144,14.7480682 14.9756887,14.1822336 C16.531234,13.6143996 18.2527308,14.4181646 18.8185654,15.9737099" id="Fill-10" fill="#FFFFFF"></path>
                    <polygon id="Fill-12" fill="#FFFFFF" points="40.1942218 30 17 18.7888821 17.8057782 17 41 28.2111179"></polygon>
                    <g id="Group-36" transform="translate(0.000000, 15.000000)">
                        <path d="M30.0868174,13.7560174 C30.6282087,15.2462783 29.8610783,16.8934087 28.3727304,17.4348 C26.8824696,17.9761913 25.2353391,17.2090609 24.6939478,15.7188 C24.1506435,14.2304522 24.919687,12.5852348 26.4080348,12.0419304 C27.8982957,11.4986261 29.543513,12.2676696 30.0868174,13.7560174" id="Fill-1" fill="#FFFFFF"></path>
                        <g id="Group-5" transform="translate(0.000000, 0.391304)">
                            <mask id="mask-2" fill="white">
                                <use xlink:href="#path-1"></use>
                            </mask>
                            <g id="Clip-4"></g>
                            <path d="M5.56676522,1.93121739 C6.10815652,3.41956522 5.34102609,5.0686087 3.85267826,5.61 C2.36241739,6.1513913 0.715286957,5.38426087 0.173895652,3.894 C-0.369408696,2.40565217 0.399634783,0.758521739 1.88989565,0.217130435 C3.37824348,-0.326173913 5.02537391,0.442869565 5.56676522,1.93121739" id="Fill-3" fill="#FFFFFF" mask="url(#mask-2)"></path>
                        </g>
                        <polygon id="Fill-6" fill="#FFFFFF" points="26.9848174 15.6055478 3.6916 4.74328696 4.50081739 3.01006957 27.7940348 13.8723304"></polygon>
                        <path d="M4.13753043,11.8468 C5.57422609,12.5182783 6.19596522,14.224713 5.5264,15.6594957 C4.85492174,17.0961913 3.14848696,17.7179304 1.7117913,17.0483652 C0.275095652,16.3788 -0.344730435,14.6723652 0.324834783,13.2356696 C0.9944,11.7989739 2.70274783,11.1772348 4.13753043,11.8468" id="Fill-14" fill="#FFFFFF"></path>
                        <polyline id="Fill-16" fill="#FFFFFF" points="17.2430261 10.2549565 4.5232 14.8845217 3.86893913 13.0862609 15.7432 8.7666087"></polyline>
                    </g>
                    <g id="Group-28" transform="translate(0.000000, 1.000000)">
                        <mask id="mask-4" fill="white">
                            <use xlink:href="#path-3"></use>
                        </mask>
                        <g id="Clip-27"></g>
                        <path d="M0.182,4.9488 C-0.386,3.3928 0.418,1.6688 1.974,1.1028 C3.532,0.5368 5.254,1.3388 5.82,2.8968 C6.386,4.4528 5.584,6.1748 4.026,6.7408 C2.47,7.3088 0.748,6.5048 0.182,4.9488" id="Fill-26" fill="#FFFFFF" mask="url(#mask-4)"></path>
                    </g>
                    <path d="M25.181434,17.0262901 C24.6156014,15.4707448 25.4173642,13.7472487 26.9729042,13.1814141 C28.5304435,12.6155795 30.2519344,13.4173451 30.817767,14.9748898 C31.3855991,16.530435 30.5818368,18.2519318 29.0262969,18.8177664 C27.4687575,19.3856004 25.7472667,18.5818354 25.181434,17.0262901" id="Fill-29" fill="#FFFFFF"></path>
                    <polygon id="Fill-31" fill="#FFFFFF" points="2.80577824 4 26 15.2111179 25.1942218 17 2 5.78888214"></polygon>
                    <g id="Group-31" transform="translate(13.000000, 0.000000)">
                        <g id="Group-20" transform="translate(0.391304, 0.000000)">
                            <mask id="mask-6" fill="white">
                                <use xlink:href="#path-5"></use>
                            </mask>
                            <g id="Clip-19"></g>
                            <path d="M0.174086957,4.73363478 C-0.369217391,3.24528696 0.399826087,1.59624348 1.88817391,1.05485217 C3.37843478,0.51346087 5.02556522,1.2805913 5.56695652,2.77085217 C6.10834783,4.2592 5.34121739,5.90633043 3.85095652,6.44772174 C2.3626087,6.99102609 0.715478261,6.22198261 0.174086957,4.73363478" id="Fill-18" fill="#FFFFFF" mask="url(#mask-6)"></path>
                        </g>
                        <g id="Group-23" transform="translate(24.347826, 11.478261)">
                            <mask id="mask-8" fill="white">
                                <use xlink:href="#path-7"></use>
                            </mask>
                            <g id="Clip-22"></g>
                            <path d="M0.736852174,4.68867826 C0.19546087,3.20033043 0.962591304,1.55128696 2.45093913,1.00989565 C3.9412,0.468504348 5.58833043,1.23563478 6.12972174,2.72589565 C6.67302609,4.21424348 5.90398261,5.86137391 4.41563478,6.40276522 C2.92537391,6.94606957 1.27824348,6.17702609 0.736852174,4.68867826" id="Fill-21" fill="#FFFFFF" mask="url(#mask-8)"></path>
                        </g>
                        <polygon id="Fill-24" fill="#FFFFFF" points="3.66662609 2.88410435 26.9598435 13.7463652 26.1506261 15.4795826 2.8574087 4.61732174"></polygon>
                        <path d="M26.513913,6.64285217 C25.0772174,5.97328696 24.4554783,4.26685217 25.1250435,2.83015652 C25.7965217,1.39346087 27.5029565,0.773634783 28.9396522,1.44128696 C30.3763478,2.11276522 30.9961739,3.81728696 30.3266087,5.25398261 C29.6570435,6.69067826 27.9506087,7.31433043 26.513913,6.64285217" id="Fill-33" fill="#FFFFFF"></path>
                        <polyline id="Fill-35" fill="#FFFFFF" points="13.4084174 8.23469565 26.1282435 3.60513043 26.7825043 5.40530435 14.9082435 9.72495652"></polyline>
                    </g>
                </g>
            </g>
        </g>
    </g>
</svg>