<svg width="37" height="32" xmlns="http://www.w3.org/2000/svg" xmlns:xlink="http://www.w3.org/1999/xlink"><defs><path id="a" d="M.293.05h3.535v3.536H.293z"/></defs><g fill="none" fill-rule="evenodd"><path d="M25.25 18.5h-2c0 1.155-1.704 2.421-4.25 2.692V13.5h-2v7.692c-2.546-.271-4.25-1.537-4.25-2.692h-2c0 2.44 2.676 4.391 6.25 4.702v6.548h2v-6.548c3.574-.311 6.25-2.262 6.25-4.702" fill="#F7007D"/><path d="M30.922 28.4c-.407.597-1.272 1.6-2.5 1.6H7.578c-1.229 0-2.094-1.003-2.5-1.6a6.375 6.375 0 0 1-1.063-3.777l.865.865c.92-.919 3.47-.42 5.657 1.768l1.414-1.414c-2.543-2.543-5.75-3.44-7.76-2.31.034-.125.065-.253.112-.37 1.385-3.51 3.952-5.182 6.918-6.856l.256-.145.137-.26c.826-1.568 3.208-3.9 6.385-3.9 3.176 0 5.56 2.332 6.385 3.9l.137.26.256.145c2.965 1.674 5.532 3.345 6.918 6.856.007.016.01.035.016.051-.769-.222-1.659-.225-2.629.017-1.509.377-3.059 1.305-4.366 2.612l1.414 1.414c1.04-1.039 2.292-1.799 3.437-2.086.968-.242 1.776-.126 2.22.318l.187-.187c-.076 1.074-.434 2.188-1.053 3.098m-4.914-13.695C24.665 12.39 21.663 10 18 10c-3.664 0-6.665 2.39-8.008 4.704-3.088 1.758-5.967 3.715-7.549 7.724-.845 2.14-.45 4.992.981 7.096C4.51 31.121 5.986 32 7.58 32h20.842c1.593 0 3.07-.879 4.155-2.476 1.431-2.104 1.825-4.956.981-7.096-1.583-4.009-4.46-5.966-7.549-7.724M3.586 12.414l2.828-2.828L5 8.172 2.172 11zM5.707 14.536l2.829-2.83-1.415-1.413-2.828 2.828zM3.586 8.172L1.464 6.05.05 7.464l2.122 2.122zM30.464 9.586l2.83 2.828L34.706 11l-2.829-2.828zM32.586 13.121l-2.83-2.828-1.413 1.414 2.829 2.83z" fill="#F7007D"/><g transform="translate(33 6)"><mask id="b" fill="#fff"><use xlink:href="#a"/></mask><path fill="#F7007D" mask="url(#b)" d="M2.414.05L.294 2.172l1.413 1.414 2.121-2.122z"/></g><path fill="#F7007D" d="M14.625 8L26 5h-8l4-5-12 3h8z"/></g></svg>